PathFileType	4	(X/Y/Z)	Patient4_TMGait_0pt6_02_right_41.trc.trc
DataRate	CameraRate	NumFrames	NumMarkers	Units	OrigDataRate	OrigDataStartFrame	OrigNumFrames
79.545454545455	79.545454545455	4	33	mm	79.545454545455	18	       141
Frame#	Time	Sacral			L.Shoulder			Chest			R.Shoulder			Neck			R.ASIS			L.ASIS			R.Thigh.Superior			R.Thigh.Lateral			R.Thigh.Inferior			R.Patella			L.Thigh.Superior			L.Thigh.Lateral			L.Thigh.Inferior			L.Patella			L.Shank.Superior			L.Shank.Lateral			L.Shank.Inferior			R.Shank.Superior			R.Shank.Lateral			R.Shank.Inferior			R.Heel			R.Midfoot.Superior			R.Midfoot.Lateral			R.Toe			L.Heel			L.Midfoot.Lateral			L.Midfoot.Superior			L.Toe			L.Elbow			L.Wrist			R.Elbow			R.Wrist			
		X1	Y1	Z1	X2	Y2	Z2	X3	Y3	Z3	X4	Y4	Z4	X5	Y5	Z5	X6	Y6	Z6	X7	Y7	Z7	X8	Y8	Z8	X9	Y9	Z9	X10	Y10	Z10	X11	Y11	Z11	X12	Y12	Z12	X13	Y13	Z13	X14	Y14	Z14	X15	Y15	Z15	X16	Y16	Z16	X17	Y17	Z17	X18	Y18	Z18	X19	Y19	Z19	X20	Y20	Z20	X21	Y21	Z21	X22	Y22	Z22	X23	Y23	Z23	X24	Y24	Z24	X25	Y25	Z25	X26	Y26	Z26	X27	Y27	Z27	X28	Y28	Z28	X29	Y29	Z29	X30	Y30	Z30	X31	Y31	Z31	X32	Y32	Z32	X33	Y33	Z33	

18	49.663714285714	829.465012697197	1009.644172109480	482.166506165162	1045.566366824462	1428.836536576721	299.943537221226	1133.942691640526	1351.163174953468	464.709744052893	1048.479498623110	1436.158702966162	631.142744457286	1041.723181532245	1488.545739544486	449.688720418475	1052.732983410731	939.307342589849	602.959842785156	1033.407366188018	958.251969265532	328.507137311634	1128.236159647133	775.748038697038	572.595184643725	1098.421151669570	656.998039723127	657.246259956263	1184.051549868668	618.159665158786	574.110792282857	1223.524884675224	533.403806156341	597.511813936553	1043.953559720723	731.575162897757	356.890012962250	927.224273554865	638.267801248135	294.302513143054	986.154400564711	544.313463974564	358.577917842819	970.820550946328	478.941408075479	368.984919278129	938.632413814998	413.217577154019	361.059770175493	838.826122708226	308.619276452473	308.631299604959	874.686460502737	193.443637058661	383.476682421691	1202.003450341153	445.876121987554	612.503883059886	1145.229912078528	337.849322213278	682.364355547012	1208.949549058666	246.366523966713	633.367359330099	1107.991395043932	63.293361672064	615.445885131934	1275.849105204011	130.180736917829	649.357280202319	1194.943818221536	58.118917888990	686.121307601131	1398.972209380327	86.876252802504	670.579962118384	731.430169401626	43.692801501400	421.887880008755	809.195587650926	37.950252954342	346.132530796132	892.893356439087	96.636494691900	374.858497159970	1020.529604922941	39.070944541909	353.888827485646	1052.705696655077	1098.794947964304	143.581645838408	1305.615831085604	1085.997264785085	162.332124704335	872.280681514707	1150.755416519421	760.887348230673	810.027613258676	897.640197871216	785.120294870838	
19	49.676285714286	830.818038521373	1007.231567163196	484.266091474537	1045.136886517489	1427.213716132000	301.788080380838	1133.762065927916	1350.043871299027	466.582501259109	1048.138814345484	1435.129070072133	632.827646695183	1040.983454615847	1486.921636288647	451.346157289138	1053.986393817260	937.120835338274	605.085505563979	1034.265595473285	956.295746417093	330.677819772833	1127.304715067379	770.760032757269	575.398336622655	1094.867114476821	652.076725258731	659.093638107403	1180.175659601630	612.489435897894	575.919858560701	1218.481090883457	528.966436106054	598.233307140471	1042.814655018046	729.795669636837	358.157057661884	924.933162816027	637.815043626135	295.262799468499	982.616253635142	543.144306079553	359.392406860639	966.505579598006	477.817496133643	369.602347079697	933.740796772340	412.456944057070	361.526331097014	832.904608450166	308.795486522898	308.991032720577	867.896504365613	193.126397076152	383.522942730375	1199.198647866647	441.716625040717	612.938878853742	1145.052312323174	331.687564700516	681.869589810397	1211.586094392103	242.253067765815	632.349106019884	1115.606629978941	56.789642740409	613.335349744025	1281.894631698925	127.296424260602	646.921440851043	1202.883754274346	53.239569296089	683.704119388439	1406.390515684217	86.720195597731	667.544680417795	723.825116576495	43.895020828725	421.770751927956	801.596208718545	38.008397290653	346.047154654962	885.294161291056	96.568813378661	374.811260674734	1012.888831096621	38.997966818281	353.863470615381	1054.908956425466	1098.002289025514	144.673326614605	1307.635624388291	1094.330305126152	165.054244445016	869.300884669839	1152.130183372733	762.408998044688	804.232441821291	899.453430847512	785.320263088066	
20	49.688857142857	832.337911330936	1004.720637077111	486.619181949510	1044.522135184671	1425.534127210362	303.795749401156	1133.609649320208	1348.950475022188	468.558202993487	1047.824025452644	1434.007235336155	634.722321642855	1040.167077392373	1485.249838722182	453.183119486004	1055.496022964061	934.864246528095	607.329719724104	1035.387839393981	954.270050043077	332.965107720620	1126.953014055826	765.947318499723	578.302828610989	1091.732481368034	647.230260092484	660.736291437695	1176.891957419639	607.139979910964	577.627489969416	1213.843009779018	524.492554686649	598.756223693187	1041.986900003310	727.948468897078	359.560712096353	922.917059669820	637.337044475944	296.396792282698	979.398369293809	541.933836933353	360.352181933240	962.516738471062	476.608807916455	370.367484806922	929.138816540020	411.631493245204	362.112116411973	827.164843752401	309.028585596610	309.461480129056	861.205053317409	192.817730330768	383.617049870061	1196.224854610462	437.339832376957	613.171058467707	1143.705675955068	325.880967217604	681.004080177863	1212.259678785912	238.040675009679	631.116206574666	1119.577760573453	51.603844388722	610.983097571221	1284.660770626333	123.997639492038	644.219529003807	1206.952938151270	48.956457625341	681.183181669016	1410.082452619131	84.861315637719	664.560353210097	716.234682721690	44.190654810411	421.654693329981	794.012291906954	38.121624334266	345.962435584379	877.726820607168	96.533957967775	374.769759613470	1005.258551510550	38.914261066700	353.819939127521	1056.683041201714	1097.031842648776	145.995267154645	1308.974919658393	1101.640890924898	167.900135387566	867.247469688149	1152.709879054337	764.057105677914	800.133151148260	900.239675689821	785.438300156343	
21	49.701428571429	833.959162049930	1002.206964972331	489.207321883484	1043.772054340505	1423.835870977313	305.971449450993	1133.515517161961	1347.905980192865	470.652340089822	1047.555843605901	1432.818548571529	636.839804722568	1039.335802389867	1483.576035150093	455.210401555277	1057.219268255895	932.596953289378	609.670143220147	1036.723798752662	952.233551575882	335.347087173510	1127.233685254804	761.476443871076	581.232916360804	1089.125519460830	642.629887373891	662.127443234614	1174.332873837193	602.312188926835	579.202577774108	1209.789953355910	520.172788457101	599.065394220860	1041.473726879220	726.086532282468	361.101307899834	921.221922927662	636.836370204038	297.715368420485	976.589043623683	540.696627403048	361.461736543031	958.960921495293	475.306683559544	371.288030790466	924.908938872336	410.731901930029	362.830370052749	821.678371638697	309.337455494515	310.048561602446	854.648844934466	192.532428294236	383.760141264534	1193.282721784657	432.916700094631	613.191423313509	1141.480812837750	320.551893108311	679.884214565955	1211.239636283922	233.803759523503	629.725610197445	1120.152728067998	47.640904172643	608.566025143628	1284.427601551661	120.382969350521	641.353481563905	1207.451525927210	45.293702923249	678.743337522595	1410.433057651540	81.476625743744	661.783644494435	708.665907391447	44.624903115298	421.535706199837	786.451562136422	38.306205727537	345.877671525718	870.215095321835	96.544485822563	374.724482300977	997.645099797498	38.821378179120	353.759383055170	1057.980260773253	1095.883408301504	147.570099438878	1309.683367852759	1107.852097427852	170.841828622601	866.113757993646	1152.490237708548	765.851247313483	797.734854280985	899.993293352101	785.543975505878	
